<svg width="256" height="256" viewBox="0 0 256 256" fill="none" xmlns="http://www.w3.org/2000/svg">
<rect x="0.5" y="0.5" width="255" height="255" rx="31.5" fill="url(#paint0_linear_17_78)" stroke="white"/>
<path d="M66.1498 136.212L66.1447 136.207C63.4612 133.596 61.8639 129.969 61.8639 125.973L61.8639 73.3882C61.8639 65.3258 68.3258 58.8639 76.3882 58.8639L128.973 58.8639C132.969 58.8639 136.599 60.4619 139.212 63.0745L206.821 130.684C209.437 133.3 211.107 136.931 211.107 140.997C211.107 144.993 209.509 148.62 206.826 151.231L206.821 151.236L154.236 203.821C151.619 206.438 147.987 208.107 143.997 208.107C140.01 208.107 136.377 206.44 133.682 203.819C133.681 203.818 133.68 203.817 133.679 203.816L66.1498 136.212ZM79.335 92.9778C81.542 95.1847 84.5353 96.4246 87.6564 96.4246C90.7775 96.4246 93.7708 95.1847 95.9778 92.9778C98.1847 90.7708 99.4246 87.7775 99.4246 84.6564C99.4246 81.5353 98.1847 78.542 95.9778 76.335C93.7708 74.128 90.7775 72.8882 87.6564 72.8882C84.5353 72.8882 81.542 74.128 79.335 76.335C77.128 78.542 75.8882 81.5353 75.8882 84.6564C75.8882 87.7775 77.128 90.7708 79.335 92.9778Z" fill="#919191" stroke="white"/>
<defs>
<linearGradient id="paint0_linear_17_78" x1="0" y1="0" x2="256" y2="256" gradientUnits="userSpaceOnUse">
<stop stop-color="#0A0A0A"/>
<stop offset="1" stop-color="#131313"/>
</linearGradient>
</defs>
</svg>
